<svg width="800" height="600" xmlns="http://www.w3.org/2000/svg">

 <g>
  <title>Layer 1</title>
  <g stroke="null">
   <!-- Generator: Adobe Illustrator 30.0.0, SVG Export Plug-In . SVG Version: 2.1.1 Build 123)  -->

   <g stroke="null">
    <path stroke="null" fill="#fff7e0" d="m334.07101,66.96237l366.57195,0c37.72098,0 68.34563,30.62465 68.34563,68.34563l0,307.17994c0,37.72098 -30.62465,68.34564 -68.34563,68.34564l-434.14437,0c-37.72098,0 -68.34563,-30.62465 -68.34563,-68.34564l0,-239.60752c0,-75.01521 60.90283,-135.91805 135.91805,-135.91805z" class="st4"/>
    <path stroke="null" fill="#4c8172" d="m700.6427,54.85985l-366.57168,0c-39.53766,0 -76.7089,15.39703 -104.66643,43.35427c-27.95753,27.95753 -43.35427,65.12877 -43.35427,104.66643l0,239.60748c0,44.35917 36.08892,80.44808 80.44839,80.44808l5.32806,0l-17.54748,35.74491c-3.49676,7.12301 1.6881,15.44423 9.62314,15.44423l35.80286,0c4.68929,0 9.06906,-2.34102 11.67435,-6.24007l30.03415,-44.94908l284.31398,0l30.03415,44.94908c2.60529,3.89905 6.98506,6.24007 11.67438,6.24007l35.80287,0c7.93504,0 13.1199,-8.32122 9.62314,-15.44423l-17.54748,-35.74491l5.32787,0c44.35976,0 80.44868,-36.08892 80.44868,-80.44808l0,-307.1801c0,-44.35917 -36.08892,-80.44808 -80.44868,-80.44808zm56.24364,387.62818c0,31.01271 -25.23093,56.24304 -56.24364,56.24304l-434.144,0c-31.01271,0 -56.24334,-25.23033 -56.24334,-56.24304l0,-239.60748c0,-68.27229 55.54337,-123.81566 123.81566,-123.81566l366.57168,0c31.01271,0 56.24364,25.23062 56.24364,56.24304l0,307.1801z" class="st3"/>
    <path stroke="null" fill="#8dbba6" d="m266.4987,89.95717l434.14459,0c25.02978,0 45.35078,20.321 45.35078,45.35077l0,307.17951c0,25.0301 -20.32127,45.35136 -45.35137,45.35136l-434.14429,0c-25.02978,0 -45.35078,-20.321 -45.35078,-45.35077l0,-307.1798c0,-25.02993 20.32113,-45.35107 45.35107,-45.35107z" class="st1"/>
    <g stroke="null">
     <rect stroke="null" fill="#fff7e0" ry="52.14815" rx="52.14815" height="280.77851" width="452.7688" y="129.29036" x="257.18638" class="st4"/>
     <path stroke="null" fill="#4c8172" d="m678.39899,422.1714l-389.6563,0c-24.07356,0 -43.6589,-19.58505 -43.6589,-43.65861l0,-217.66634c0,-24.07356 19.58534,-43.65861 43.6589,-43.65861l389.6563,0c24.07386,0 43.6589,19.58505 43.6589,43.65861l0,217.66634c0,24.07356 -19.58505,43.65861 -43.6589,43.65861zm-389.6563,-280.77851c-10.7268,0 -19.45385,8.72676 -19.45385,19.45356l0,217.66634c0,10.7268 8.72705,19.45356 19.45385,19.45356l389.6563,0c10.72681,0 19.45386,-8.72676 19.45386,-19.45356l0,-217.66634c0,-10.7268 -8.72705,-19.45356 -19.45386,-19.45356l-389.6563,0z" class="st3"/>
    </g>
    <g stroke="null">
     <rect stroke="null" fill="#4c8172" ry="17.18519" rx="17.18519" height="85.52449" width="104.88853" y="281.5132" x="559.86149" class="st3"/>
     <rect stroke="null" fill="#4c8172" ry="17.18519" rx="17.18519" height="85.52449" width="104.88853" y="176.08678" x="559.86149" class="st3"/>
     <rect stroke="null" fill="#4c8172" ry="17.18519" rx="17.18519" height="85.52449" width="104.88853" y="281.5132" x="431.12652" class="st3"/>
     <rect stroke="null" fill="#4c8172" ry="17.18519" rx="17.18519" height="85.52449" width="104.88853" y="176.08678" x="431.12652" class="st3"/>
     <rect stroke="null" fill="#4c8172" ry="17.18519" rx="17.18519" height="85.52449" width="104.88853" y="281.5132" x="302.39154" class="st3"/>
     <rect stroke="null" fill="#4c8172" ry="17.18519" rx="17.18519" height="85.52449" width="104.88853" y="176.08678" x="302.39154" class="st3"/>
    </g>
    <circle stroke="null" fill="#4c8172" r="16.85388" cy="458.12037" cx="684.85365" class="st3"/>
   </g>
   <g stroke="null">
    <path stroke="null" fill="#f3b358" d="m435.63134,66.96237c-101.1233,-60.3109 -214.61806,-4.90824 -245.81567,87.07092s-53.52004,159.2154 -170.51109,193.9093c92.51706,9.95097 130.65054,106.83561 214.61806,45.98958c111.3432,-80.68348 49.48587,-299.06677 201.7087,-326.9698z" class="st2"/>
    <path stroke="null" fill="#d08e44" d="m94.60917,321.85494c39.80385,3.76523 103.27485,-31.7355 126.40412,-104.35063c0,83.37293 -58.53559,156.22901 -119.90223,162.56321c-33.67486,-18.44144 -63.51821,-32.39386 -63.51821,-32.39386l57.01633,-25.81872z" class="st0"/>
    <path stroke="null" fill="#4c8172" d="m441.83074,56.56797c-49.03088,-29.24225 -104.32221,-34.92387 -155.68937,-15.99772c-50.53601,18.61974 -90.83008,59.58247 -107.78661,109.57539l-0.42578,1.25487c-31.08126,91.64233 -51.61448,152.18479 -162.06536,184.93931c-5.52945,1.63957 -9.13362,6.95363 -8.61182,12.6976c0.5215,5.74397 5.0242,10.32171 10.75871,10.93836c33.64242,3.61864 59.71602,19.79927 84.93099,35.44715c20.63398,12.80486 40.12388,24.9 62.177,29.06083c5.18464,0.97831 10.35067,1.46879 15.51345,1.46879c19.96621,0 39.86061,-7.34218 60.39206,-22.22036c52.86197,-38.30584 68.83014,-103.45854 84.27268,-166.46641c18.97106,-77.40532 35.35526,-144.25521 112.51682,-158.39915c4.95891,-0.90917 8.8349,-4.79698 9.7287,-9.75854s-1.38162,-9.9577 -5.71147,-12.54012l0.00001,0zm-102.45365,64.9568c-18.42296,31.77592 -28.16673,71.53223 -37.58962,109.9793c-14.40307,58.76667 -29.29632,119.53398 -74.9662,152.62829c-44.36478,32.14762 -72.36368,14.773 -111.11658,-9.27634c-16.41345,-10.1855 -34.19849,-21.22196 -54.79287,-29.0889c89.97144,-39.26908 112.39213,-105.36876 139.93984,-186.59217l0.42519,-1.25428c14.63265,-43.14094 49.4859,-78.51955 93.23286,-94.63783c32.55178,-11.99408 67.01159,-12.489 99.89087,-1.87063c-13.66513,1.6607 -27.29099,5.1141 -40.06977,10.22066c-8.46689,3.30212 -17.09016,7.62561 -24.82727,12.40686c-11.8694,7.15802 -22.65437,15.93014 -32.34936,25.78504c-1.55451,1.66905 -5.51967,5.99391 -6.96981,7.59821c-1.45047,1.78321 -4.98971,6.08487 -6.4856,7.97951l-4.0206,5.53382c-2.75642,3.62536 -5.05009,7.57375 -7.50528,11.3819c-2.18875,3.40328 -4.64481,8.2198 -6.66481,11.83582c-2.02295,4.04615 -3.90251,8.15834 -5.76665,12.25074c3.68582,-5.24263 7.76847,-11.38485 11.69965,-16.45829c5.17005,-7.06421 11.18674,-13.98774 17.03517,-20.50009c1.65058,-1.66875 5.32739,-5.41009 6.95817,-7.09431c1.4733,-1.42395 5.76728,-5.33581 7.24416,-6.75068c2.38608,-2.05848 5.15048,-4.30872 7.54051,-6.37026c2.46043,-1.8258 5.37647,-4.15371 7.85349,-5.93488c19.19879,-13.88222 41.31308,-23.5963 64.43754,-28.54659c-17.2592,11.27036 -31.54851,26.79356 -43.13304,46.77509z" class="st3"/>
   </g>
  </g>
 </g>
</svg>