<svg version="1.2" xmlns="http://www.w3.org/2000/svg" viewBox="0 0 2000 2000" width="800" height="800">
	<style>
		tspan { white-space:pre } 
		.s0 { fill: #fff7e0 } 
		.s1 { fill: #4c8172 } 
		.s2 { fill: #8dbba6 } 
		.s3 { fill: #f3b358 } 
		.s4 { fill: #d08e44 } 
		.t5 { font-size: 225px;fill: #f3b358;font-weight: bold;font-family: "Oxanium Roman" } 
	</style>
	<g id="Layer 1">
		<g id="&lt;Group&gt;">
			<g id="&lt;Group&gt;">
				<path id="&lt;Path&gt;" class="s0" d="m798.08 497.63h643.81c66.3 0 120.04 53.74 120.04 120.04v539.5c0 66.29-53.74 120.04-120.04 120.04h-762.49c-66.29 0-120.03-53.75-120.03-120.04v-420.82c0-131.84 106.87-238.72 238.71-238.72z"/>
				<path id="&lt;Compound Path&gt;" class="s1" d="m1441.89 476.38h-643.81c-69.44 0-134.72 27.04-183.83 76.14-49.1 49.1-76.14 114.38-76.14 183.83v420.82c0 77.91 63.38 141.29 141.29 141.29h9.36l-30.82 62.78c-6.14 12.51 2.97 27.13 16.9 27.13h62.88c8.24 0 15.93-4.11 20.51-10.96l52.75-78.95h499.34l52.75 78.95c4.57 6.85 12.27 10.96 20.5 10.96h62.88c13.94 0 23.05-14.62 16.9-27.13l-30.81-62.78h9.35c77.91 0 141.3-63.38 141.3-141.29v-539.5c0-77.91-63.39-141.29-141.3-141.29zm98.78 680.79c0 54.47-44.31 98.78-98.78 98.78h-762.49c-54.47 0-98.78-44.31-98.78-98.78v-420.82c0-119.91 97.55-217.46 217.46-217.46h643.81c54.47 0 98.78 44.31 98.78 98.78z"/>
				<g id="&lt;Group&gt;">
					<path id="&lt;Path&gt;" class="s2" d="m679.4 1236.82c-43.92 0-79.65-35.73-79.65-79.65v-539.5c0-43.92 35.73-79.65 79.65-79.65h762.49c43.92 0 79.65 35.73 79.65 79.65v539.5c0 43.92-35.73 79.65-79.65 79.65z"/>
				</g>
				<g id="&lt;Group&gt;">
					<path id="&lt;Path&gt;" class="s0" d="m1402.83 1100.23h-684.36c-30.61 0-55.42-24.81-55.42-55.42v-382.29c0-30.61 24.81-55.42 55.42-55.42h684.36c30.61 0 55.42 24.81 55.42 55.42v382.29c0 30.61-24.81 55.42-55.42 55.42z"/>
					<path id="&lt;Compound Path&gt;" class="s1" d="m1402.83 1121.49h-684.36c-42.28 0-76.68-34.4-76.68-76.68v-382.29c0-42.28 34.4-76.68 76.68-76.68h684.36c42.28 0 76.68 34.4 76.68 76.68v382.29c0 42.28-34.4 76.68-76.68 76.68zm-684.36-493.14c-18.84 0-34.17 15.33-34.17 34.17v382.29c0 18.84 15.33 34.17 34.17 34.17h684.36c18.84 0 34.16-15.33 34.16-34.17v-382.29c0-18.84-15.32-34.17-34.16-34.17z"/>
				</g>
				<g id="&lt;Group&gt;">
					<g id="&lt;Group&gt;">
						<path id="&lt;Path&gt;" class="s1" d="m1360.59 1024.66h-147.69c-10.08 0-18.26-8.18-18.26-18.27v-113.68c0-10.08 8.18-18.26 18.26-18.26h147.69c10.09 0 18.27 8.18 18.27 18.26v113.68c0 10.09-8.18 18.27-18.27 18.27z"/>
					</g>
					<g id="&lt;Group&gt;">
						<path id="&lt;Path&gt;" class="s1" d="m1360.59 839.5h-147.69c-10.08 0-18.26-8.18-18.26-18.27v-113.68c0-10.08 8.18-18.26 18.26-18.26h147.69c10.09 0 18.27 8.18 18.27 18.26v113.68c0 10.09-8.18 18.27-18.27 18.27z"/>
					</g>
					<g id="&lt;Group&gt;">
						<path id="&lt;Path&gt;" class="s1" d="m1134.49 1024.66h-147.69c-10.08 0-18.26-8.18-18.26-18.27v-113.68c0-10.08 8.18-18.26 18.26-18.26h147.69c10.09 0 18.27 8.18 18.27 18.26v113.68c0 10.09-8.18 18.27-18.27 18.27z"/>
					</g>
					<g id="&lt;Group&gt;">
						<path id="&lt;Path&gt;" class="s1" d="m1134.49 839.5h-147.69c-10.08 0-18.26-8.18-18.26-18.27v-113.68c0-10.08 8.18-18.26 18.26-18.26h147.69c10.09 0 18.27 8.18 18.27 18.26v113.68c0 10.09-8.18 18.27-18.27 18.27z"/>
					</g>
					<g id="&lt;Group&gt;">
						<path id="&lt;Path&gt;" class="s1" d="m908.39 1024.66h-147.68c-10.09 0-18.27-8.18-18.27-18.27v-113.68c0-10.08 8.18-18.26 18.27-18.26h147.68c10.09 0 18.27 8.18 18.27 18.26v113.68c0 10.09-8.18 18.27-18.27 18.27z"/>
					</g>
					<g id="&lt;Group&gt;">
						<path id="&lt;Path&gt;" class="s1" d="m908.39 839.5h-147.68c-10.09 0-18.27-8.18-18.27-18.27v-113.68c0-10.08 8.18-18.26 18.27-18.26h147.68c10.09 0 18.27 8.18 18.27 18.26v113.68c0 10.09-8.18 18.27-18.27 18.27z"/>
					</g>
				</g>
				<g id="&lt;Group&gt;">
					<path id="&lt;Path&gt;" class="s1" d="m1414.16 1214.23c-16.37 0-29.6-13.24-29.6-29.6 0-16.37 13.23-29.6 29.6-29.6 16.37 0 29.6 13.23 29.6 29.6 0 16.36-13.23 29.6-29.6 29.6z"/>
				</g>
			</g>
			<g id="&lt;Group&gt;">
				<path id="&lt;Path&gt;" class="s3" d="m976.45 497.63c-177.6-105.92-376.93-8.62-431.73 152.92-54.79 161.55-94 279.64-299.47 340.57 162.49 17.48 229.47 187.64 376.94 80.77 195.55-141.7 86.91-525.25 354.26-574.26z"/>
				<path id="&lt;Path&gt;" class="s4" d="m377.51 945.3c69.91 6.61 181.38-55.74 222.01-183.27 0 146.43-102.81 274.39-210.59 285.51-59.14-32.39-111.56-56.89-111.56-56.89z"/>
				<path id="&lt;Compound Path&gt;" class="s1" d="m987.34 479.38c-86.11-51.36-183.22-61.34-273.44-28.1-88.76 32.7-159.53 104.64-189.31 192.45l-0.74 2.2c-54.59 160.95-90.66 267.28-284.64 324.81-9.71 2.88-16.04 12.21-15.13 22.3 0.92 10.09 8.83 18.13 18.9 19.21 59.09 6.36 104.88 34.78 149.16 62.26 36.24 22.49 70.47 43.73 109.21 51.04q13.65 2.58 27.24 2.58c35.07 0 70.01-12.9 106.07-39.03 92.84-67.27 120.89-181.7 148.01-292.36 33.32-135.95 62.09-253.36 197.61-278.2 8.71-1.6 15.52-8.43 17.09-17.14 1.57-8.71-2.43-17.49-10.03-22.02zm-179.94 114.08c-32.36 55.81-49.47 125.63-66.02 193.16-25.3 103.21-51.45 209.94-131.66 268.06-77.92 56.46-127.1 25.95-195.16-16.29-28.83-17.89-60.06-37.27-96.23-51.09 158.02-68.97 197.39-185.06 245.78-327.71l0.74-2.21c25.7-75.77 86.91-137.9 163.75-166.21 57.17-21.07 117.69-21.93 175.44-3.29-24 2.92-47.93 8.99-70.38 17.95-14.87 5.8-30.01 13.4-43.6 21.8-20.85 12.57-39.79 27.97-56.82 45.28-2.73 2.93-9.69 10.53-12.24 13.35-2.55 3.13-8.76 10.68-11.39 14.01l-7.06 9.72c-4.84 6.37-8.87 13.3-13.18 19.99-3.85 5.98-8.16 14.44-11.71 20.79-3.55 7.1-6.85 14.33-10.13 21.51 6.48-9.2 13.65-19.99 20.55-28.9 9.08-12.41 19.65-24.57 29.92-36.01 2.9-2.93 9.36-9.5 12.22-12.46 2.59-2.5 10.13-9.37 12.73-11.85 4.19-3.62 9.04-7.57 13.24-11.19 4.32-3.21 9.44-7.3 13.79-10.42 33.72-24.39 72.56-41.45 113.17-50.14-30.31 19.79-55.41 47.06-75.75 82.15z"/>
				<text id="
" style="transform: matrix(1,0,0,1,871,1744)" >
				</text>
				<text id="homescreen-hero" style="transform: matrix(1,0,0,1,68.999,1586)" >
					<tspan x="0" y="0" class="t5">h</tspan><tspan  y="0" class="t5">o</tspan><tspan  y="0" class="t5">m</tspan><tspan  y="0" class="t5">e</tspan><tspan  y="0" class="t5">s</tspan><tspan  y="0" class="t5">c</tspan><tspan  y="0" class="t5">r</tspan><tspan  y="0" class="t5">e</tspan><tspan  y="0" class="t5">e</tspan><tspan  y="0" class="t5">n</tspan><tspan  y="0" class="t5">-</tspan><tspan  y="0" class="t5">h</tspan><tspan  y="0" class="t5">e</tspan><tspan  y="0" class="t5">r</tspan><tspan  y="0" class="t5">o</tspan><tspan  y="0" class="t5">
</tspan>
				</text>
			</g>
		</g>
	</g>
</svg>