<svg width="1200" height="900" xmlns="http://www.w3.org/2000/svg">

 <g>
  <title>Layer 1</title>
  <g stroke="null">
   <!-- Generator: Adobe Illustrator 30.0.0, SVG Export Plug-In . SVG Version: 2.1.1 Build 123)  -->

   <g stroke="null">
    <path stroke="null" fill="#fff7e0" d="m510.72159,98.96713l549.72626,0c56.56792,0 102.4939,45.92598 102.4939,102.4939l0,460.65958c0,56.56793 -45.92598,102.49391 -102.4939,102.49391l-651.06062,0c-56.56792,0 -102.4939,-45.92598 -102.4939,-102.49391l0,-359.32523c0,-112.49588 91.33237,-203.82825 203.82825,-203.82825z" class="st4"/>
    <path stroke="null" fill="#4c8172" d="m1060.44745,80.81769l-549.72586,0c-59.29229,0 -115.03579,23.09001 -156.96205,65.01584c-41.92626,41.92626 -65.01584,97.66976 -65.01584,156.96205l0,359.32516c0,66.52282 54.12041,120.64323 120.64369,120.64323l7.99017,0l-26.31491,53.60453c-5.24388,10.68196 2.53155,23.1608 14.43126,23.1608l53.69143,0c7.03224,0 13.60033,-3.51069 17.50733,-9.35786l45.04044,-67.40748l426.36885,0l45.04043,67.40748c3.90699,5.84717 10.47508,9.35786 17.50738,9.35786l53.69144,0c11.89971,0 19.67514,-12.47884 14.43126,-23.1608l-26.31491,-53.60453l7.98989,0c66.52371,0 120.64413,-54.12041 120.64413,-120.64323l0,-460.65982c0,-66.52282 -54.12042,-120.64323 -120.64413,-120.64323zm84.34526,581.30305c0,46.50793 -37.83733,84.34436 -84.34526,84.34436l-651.06006,0c-46.50793,0 -84.34481,-37.83643 -84.34481,-84.34436l0,-359.32516c0,-102.38392 83.2951,-185.67902 185.67902,-185.67902l549.72586,0c46.50793,0 84.34526,37.83687 84.34526,84.34436l0,460.65982z" class="st3"/>
    <path stroke="null" fill="#8dbba6" d="m409.38739,133.45106l651.06095,0c37.53568,0 68.00988,30.4742 68.00988,68.00987l0,460.65893c0,37.53616 -30.4746,68.01076 -68.01077,68.01076l-651.06051,0c-37.53568,0 -68.00988,-30.4742 -68.00988,-68.00987l0,-460.65937c0,-37.53591 30.4744,-68.01031 68.01032,-68.01031z" class="st1"/>
    <g stroke="null">
     <rect stroke="null" fill="#fff7e0" ry="52.14815" rx="52.14815" height="421.06692" width="678.99058" y="192.43672" x="395.42225" class="st4"/>
     <path stroke="null" fill="#4c8172" d="m1027.08989,631.65308l-584.3445,0c-36.10169,0 -65.47267,-29.37054 -65.47267,-65.47223l0,-326.42133c0,-36.1017 29.37098,-65.47223 65.47267,-65.47223l584.3445,0c36.10214,0 65.47268,29.37053 65.47268,65.47223l0,326.42133c0,36.10169 -29.37053,65.47223 -65.47268,65.47223zm-584.3445,-421.06692c-16.08635,0 -29.17379,13.087 -29.17379,29.17336l0,326.42133c0,16.08635 13.08744,29.17336 29.17379,29.17336l584.3445,0c16.08636,0 29.1738,-13.087 29.1738,-29.17336l0,-326.42133c0,-16.08635 -13.08744,-29.17336 -29.1738,-29.17336l-584.3445,0z" class="st3"/>
    </g>
    <g stroke="null">
     <rect stroke="null" fill="#4c8172" ry="17.18519" rx="17.18519" height="128.25602" width="157.29511" y="420.7163" x="849.32621" class="st3"/>
     <rect stroke="null" fill="#4c8172" ry="17.18519" rx="17.18519" height="128.25602" width="157.29511" y="262.61454" x="849.32621" class="st3"/>
     <rect stroke="null" fill="#4c8172" ry="17.18519" rx="17.18519" height="128.25602" width="157.29511" y="420.7163" x="656.26998" class="st3"/>
     <rect stroke="null" fill="#4c8172" ry="17.18519" rx="17.18519" height="128.25602" width="157.29511" y="262.61454" x="656.26998" class="st3"/>
     <rect stroke="null" fill="#4c8172" ry="17.18519" rx="17.18519" height="128.25602" width="157.29511" y="420.7163" x="463.21376" class="st3"/>
     <rect stroke="null" fill="#4c8172" ry="17.18519" rx="17.18519" height="128.25602" width="157.29511" y="262.61454" x="463.21376" class="st3"/>
    </g>
    <circle stroke="null" fill="#4c8172" r="25.27477" cy="685.56363" cx="1036.76956" class="st3"/>
   </g>
   <g stroke="null">
    <path stroke="null" fill="#f3b358" d="m663.0256,98.96713c-151.64862,-90.44469 -321.85,-7.3606 -368.63522,130.57511s-80.26084,238.76592 -255.70539,290.7943c138.74236,14.92287 195.92889,160.21505 321.85001,68.96786c166.97481,-120.99624 74.21103,-448.49274 302.4906,-490.33727z" class="st2"/>
    <path stroke="null" fill="#d08e44" d="m151.61483,481.21442c59.69148,5.64649 154.87518,-47.59185 189.56078,-156.48847c0,125.02944 -87.78235,234.2874 -179.81029,243.78643c-50.5002,-27.65554 -95.2545,-48.57916 -95.2545,-48.57916l85.50401,-38.7188z" class="st0"/>
    <path stroke="null" fill="#4c8172" d="m672.32247,83.37926c-73.5287,-43.85287 -156.44585,-52.37327 -233.47814,-23.99084c-75.78587,27.92293 -136.2125,89.3523 -161.6412,164.32374l-0.63852,1.88185c-46.61073,137.43058 -77.40318,228.22252 -243.03983,277.34253c-8.2922,2.45877 -13.69715,10.42795 -12.91463,19.04184c0.78207,8.61389 7.53449,15.47886 16.1342,16.40361c50.45154,5.42666 89.55259,29.69179 127.36597,53.15799c30.94355,19.20269 60.17141,37.34105 93.24317,43.58081c7.7751,1.46711 15.52229,2.20265 23.2646,2.20265c29.94214,0 59.7766,-11.01063 90.5664,-33.32256c79.27396,-57.44501 103.22049,-155.15066 126.37874,-249.63982c28.44978,-116.08018 53.02019,-216.331 168.73481,-237.54183c7.43658,-1.36342 13.24918,-7.19375 14.58956,-14.63431s-2.07194,-14.93297 -8.56515,-18.80567l0.00001,0zm-153.64367,97.41187c-27.62782,47.65246 -42.23997,107.27265 -56.37092,164.92945c-21.59943,88.1289 -43.93395,179.25804 -112.42237,228.88761c-66.53124,48.20988 -108.51954,22.15419 -166.63496,-13.91117c-24.61428,-15.27459 -51.28545,-31.82532 -82.16962,-43.6229c134.92484,-58.88951 168.54783,-158.0153 209.8595,-279.82124l0.63763,-1.88096c21.94371,-64.69592 74.21108,-117.75112 139.8158,-141.92275c48.81599,-17.98682 100.49331,-18.72901 149.80042,-2.80528c-20.49278,2.49046 -40.92668,7.66932 -60.09026,15.32733c-12.6973,4.95199 -25.6291,11.43568 -37.23199,18.60583c-17.79983,10.73447 -33.97342,23.88949 -48.51242,38.6683c-2.3312,2.50297 -8.27752,8.98871 -10.45221,11.39458c-2.17518,2.67417 -7.48277,9.12512 -9.72607,11.9664l-6.02945,8.29874c-4.13363,5.43675 -7.57332,11.35791 -11.25522,17.06876c-3.28233,5.1037 -6.96555,12.32675 -9.99482,17.74949c-3.0337,6.06777 -5.85237,12.23458 -8.6479,18.3717c5.52741,-7.86205 11.64991,-17.07319 17.54527,-24.68153c7.75322,-10.59378 16.7761,-20.97658 25.54663,-30.74277c2.47527,-2.50253 7.98917,-8.11319 10.43476,-10.63892c2.20942,-2.13542 8.64884,-8.00181 10.86364,-10.12359c3.57826,-3.08698 7.72386,-6.46154 11.30806,-9.5531c3.68976,-2.73804 8.06278,-6.22907 11.77741,-8.90019c28.79129,-20.81835 61.95478,-35.38597 96.63317,-42.80964c-25.8826,16.90149 -47.31143,40.18071 -64.68406,70.14584z" class="st3"/>
   </g>
  </g>
 </g>
</svg>